# xmcd CD database file
#
# Track frame offsets:
#	150
#	27807
#	64035
#	93135
#	124835
#	144445
#
# Disc length: 2309 seconds
#
# Revision: 0
# Processed by: cddbd v1.4PL0 Copyright (c) Steve Scherf et al.
# Submitted via: CDex 1.50Beta7
#
DISCID=46090306
DTITLE=Thad Jones, Frank Wess, Teddy CHarles, Mal Waldron, Doug Watkins, Elvin Jones - Olio
DYEAR=1957
DGENRE=Jazz
TTITLE0=Potpourri
TTITLE1=Blues without Woe
TTITLE2=Touche
TTITLE3=Dakar
TTITLE4=Embraceable You
TTITLE5=Hello Frisco
EXTD=YEAR: 1957
EXTT0=
EXTT1=
EXTT2=
EXTT3=
EXTT4=
EXTT5=
PLAYORDER=
